<svg xmlns="http://www.w3.org/2000/svg" width="233" height="60" fill="none"><path fill="#fff" d="M12.88 11.902 6.472 26.806H2.638l2.412-5.238-4.14-9.666h3.924l2.124 5.724 2.052-5.724h3.87zm5.98 10.224c-1.007 0-1.913-.21-2.717-.63a4.658 4.658 0 0 1-1.872-1.8c-.456-.78-.684-1.698-.684-2.754 0-1.044.228-1.956.684-2.736a4.78 4.78 0 0 1 1.89-1.8c.804-.42 1.71-.63 2.718-.63s1.908.21 2.7.63a4.629 4.629 0 0 1 1.89 1.8c.468.78.702 1.692.702 2.736 0 1.044-.234 1.962-.702 2.754a4.629 4.629 0 0 1-1.89 1.8c-.804.42-1.71.63-2.718.63zm0-3.06c.493 0 .9-.18 1.225-.54.336-.372.504-.9.504-1.584s-.168-1.206-.504-1.566a1.557 1.557 0 0 0-1.206-.54c-.48 0-.882.18-1.206.54-.324.36-.486.882-.486 1.566 0 .696.156 1.224.468 1.584.312.36.714.54 1.206.54zm17.438-7.164V22h-3.546v-1.44a3.4 3.4 0 0 1-1.242 1.116c-.528.276-1.134.414-1.818.414-1.176 0-2.106-.384-2.79-1.152-.672-.78-1.008-1.836-1.008-3.168v-5.868h3.51v5.418c0 .576.15 1.032.45 1.368.312.324.72.486 1.224.486.516 0 .924-.162 1.224-.486.3-.336.45-.792.45-1.368v-5.418h3.546z"/><rect width="45" height="32" x="42" fill="#000" rx="6"/><path fill="#fff" d="M53.734 11.776c.684 0 1.278.138 1.782.414.516.276.912.648 1.188 1.116v-1.404h3.528v9.99c0 .948-.18 1.8-.54 2.556-.36.768-.924 1.38-1.692 1.836-.756.456-1.716.684-2.88.684-1.56 0-2.808-.366-3.744-1.098-.936-.732-1.47-1.728-1.602-2.988h3.474c.072.324.252.576.54.756.288.18.66.27 1.116.27 1.2 0 1.8-.672 1.8-2.016v-1.296c-.276.468-.672.84-1.188 1.116-.504.276-1.098.414-1.782.414-.804 0-1.536-.21-2.196-.63-.648-.42-1.164-1.02-1.548-1.8-.372-.792-.558-1.71-.558-2.754s.186-1.956.558-2.736c.384-.78.9-1.38 1.548-1.8.66-.42 1.392-.63 2.196-.63zm2.97 5.166c0-.648-.18-1.158-.54-1.53a1.703 1.703 0 0 0-1.296-.558c-.528 0-.966.186-1.314.558-.348.36-.522.87-.522 1.53 0 .648.174 1.164.522 1.548.348.372.786.558 1.314.558.516 0 .948-.186 1.296-.558.36-.372.54-.888.54-1.548zm7.68-5.976c-.624 0-1.128-.168-1.512-.504a1.703 1.703 0 0 1-.558-1.296c0-.528.186-.966.558-1.314.384-.348.888-.522 1.512-.522.612 0 1.104.174 1.476.522.384.348.576.786.576 1.314 0 .516-.192.948-.576 1.296-.372.336-.864.504-1.476.504zm1.746.936V22h-3.528V11.902h3.528zm6.096-.126c.683 0 1.278.138 1.781.414.516.276.912.648 1.188 1.116v-1.404h3.529v9.99c0 .948-.18 1.8-.54 2.556-.36.768-.924 1.38-1.692 1.836-.757.456-1.717.684-2.88.684-1.56 0-2.808-.366-3.744-1.098-.936-.732-1.47-1.728-1.602-2.988h3.474c.072.324.252.576.54.756.287.18.66.27 1.115.27 1.2 0 1.8-.672 1.8-2.016v-1.296c-.275.468-.671.84-1.188 1.116-.504.276-1.098.414-1.782.414-.803 0-1.535-.21-2.195-.63-.648-.42-1.165-1.02-1.549-1.8-.371-.792-.557-1.71-.557-2.754s.185-1.956.557-2.736c.385-.78.9-1.38 1.549-1.8.66-.42 1.391-.63 2.195-.63zm2.97 5.166c0-.648-.18-1.158-.54-1.53a1.703 1.703 0 0 0-1.297-.558c-.527 0-.965.186-1.313.558-.349.36-.523.87-.523 1.53 0 .648.175 1.164.523 1.548.347.372.785.558 1.313.558.517 0 .949-.186 1.297-.558.36-.372.54-.888.54-1.548z"/><mask id="a" width="16" height="14" x="103" y="9" maskUnits="userSpaceOnUse" style="mask-type:luminance"><path fill="#fff" stroke="#fff" stroke-linejoin="round" stroke-width="1.333" d="M114 10h3.667L108 22h-3.667L114 10z"/><path fill="#fff" stroke="#fff" stroke-linejoin="round" stroke-width="1.333" d="M108 10h-3.667L114 22h3.667L108 10z"/></mask><g mask="url(#a)"><path fill="#fff" d="M103 8h16v16h-16V8z"/></g><path fill="#fff" d="M135 15V3h4.5v11h8.5V3h4.5v11H148c3.2 0 4.333 3 4.5 4.5V29H148V18.5h-8.5V29H135V18.5h4.5c-2.8 0-4.167-2.333-4.5-3.5zm23.5 10V3h4.5v22h8.5V3h4.5v17.5l-4.5 4.5h4.5c0 3.2-3 4-4.5 4H163c-2.8 0-4.167-2.667-4.5-4zm23.5 4V3h13c2.8 0 3.833 2.667 4 4v4.5l-4 2.5c3.6 0 4.167 3 4 4.5V25c0 3.2-2.667 4-4 4h-13zm23.025-21.5V3h13c4 1.6 4 4.667 3.5 6l-11.5 20h-5l6.5-11.5 10-10h-16.5zm22.728 0 4.5-4.5v26h-4.5V7.5z"/><path fill="#270F56" d="m199 18.5-4 4v2h-9v-6h13c.167-1.5-.4-4.5-4-4.5h-9V7.5h9V14c3.6 0 4.167 3 4 4.5z"/><path fill="#fff" d="M7.732 48.144c0 .424-.1.824-.3 1.2-.2.376-.52.684-.96.924-.44.232-1.004.348-1.692.348H3.268V54H1.9v-8.34h2.88c.64 0 1.18.112 1.62.336.448.216.78.512.996.888.224.376.336.796.336 1.26zM4.78 49.5c.52 0 .908-.116 1.164-.348.256-.24.384-.576.384-1.008 0-.912-.516-1.368-1.548-1.368H3.268V49.5H4.78zm8.3 4.584a4.39 4.39 0 0 1-2.147-.54 4.16 4.16 0 0 1-1.548-1.524c-.376-.656-.564-1.392-.564-2.208 0-.816.188-1.548.564-2.196a4.07 4.07 0 0 1 1.548-1.512 4.316 4.316 0 0 1 2.148-.552c.784 0 1.5.184 2.148.552.656.36 1.172.864 1.548 1.512.376.648.564 1.38.564 2.196 0 .816-.188 1.552-.564 2.208a4.047 4.047 0 0 1-1.548 1.524c-.648.36-1.364.54-2.148.54zm0-1.188c.553 0 1.045-.124 1.477-.372a2.63 2.63 0 0 0 1.008-1.08c.248-.472.372-1.016.372-1.632 0-.616-.124-1.156-.372-1.62a2.55 2.55 0 0 0-1.008-1.068 2.911 2.911 0 0 0-1.476-.372c-.552 0-1.044.124-1.476.372a2.628 2.628 0 0 0-1.02 1.068c-.24.464-.36 1.004-.36 1.62 0 .616.12 1.16.36 1.632.248.464.588.824 1.02 1.08.432.248.924.372 1.476.372zm16.707-7.236L27.315 54h-1.548l-1.752-6.312L22.155 54l-1.536.012-2.364-8.352h1.452l1.728 6.792 1.872-6.792h1.536l1.74 6.756 1.74-6.756h1.464zm2.736 1.104v2.448h2.88v1.116h-2.88v2.556h3.24V54h-4.608v-8.352h4.608v1.116h-3.24zM42.02 54l-1.92-3.336h-1.044V54h-1.368v-8.34h2.88c.64 0 1.18.112 1.62.336.448.224.78.524.996.9.224.376.336.796.336 1.26 0 .544-.16 1.04-.48 1.488-.312.44-.796.74-1.452.9L43.652 54H42.02zm-2.964-4.428h1.512c.512 0 .896-.128 1.152-.384.264-.256.396-.6.396-1.032 0-.432-.128-.768-.384-1.008-.256-.248-.644-.372-1.164-.372h-1.512v2.796zm7.822-2.808v2.448h2.88v1.116h-2.88v2.556h3.24V54H45.51v-8.352h4.608v1.116h-3.24zm7.89-1.104c.887 0 1.663.172 2.327.516a3.558 3.558 0 0 1 1.548 1.464c.368.632.552 1.372.552 2.22 0 .848-.184 1.584-.552 2.208a3.598 3.598 0 0 1-1.548 1.44c-.664.328-1.44.492-2.328.492h-2.724v-8.34h2.724zm0 7.224c.975 0 1.723-.264 2.243-.792.52-.528.78-1.272.78-2.232 0-.968-.26-1.724-.78-2.268-.52-.544-1.268-.816-2.244-.816h-1.356v6.108h1.356zm13.844-3.168c.448.08.828.316 1.14.708.312.392.468.836.468 1.332 0 .424-.112.808-.336 1.152-.216.336-.532.604-.948.804-.416.192-.9.288-1.452.288h-3.336v-8.34h3.18c.568 0 1.056.096 1.464.288.408.192.716.452.924.78.208.32.312.68.312 1.08 0 .48-.128.88-.384 1.2-.256.32-.6.556-1.032.708zm-3.096-.552h1.692c.448 0 .796-.1 1.044-.3.256-.208.384-.504.384-.888 0-.376-.128-.668-.384-.876-.248-.216-.596-.324-1.044-.324h-1.692v2.388zm1.848 3.72c.464 0 .828-.112 1.092-.336.264-.224.396-.536.396-.936 0-.408-.14-.732-.42-.972-.28-.24-.652-.36-1.116-.36h-1.8v2.604h1.848zm10.763-7.224-2.76 5.316V54h-1.368v-3.024l-2.772-5.316h1.524l1.932 4.092 1.932-4.092h1.512z"/><path fill="#FAA91A" d="M102.123 42.47H91.366l5.378 5.379 5.379-5.378zm1.936 15.06V44.836L91.366 57.529h12.693z"/><path fill="#fff" d="M89 55.378V44.837L94.378 50 89 55.378zm21.291-9.592h1.945l1.873 3.538h.081l1.873-3.538h1.945l-2.996 5.31V54h-1.725v-2.904l-2.996-5.31zm10.126 8.334c-.623 0-1.162-.132-1.616-.397a2.717 2.717 0 0 1-1.047-1.115c-.246-.478-.369-1.033-.369-1.664 0-.637.123-1.193.369-1.669a2.69 2.69 0 0 1 1.047-1.115c.454-.267.993-.4 1.616-.4.623 0 1.161.133 1.613.4.454.265.804.637 1.05 1.115.246.476.369 1.032.369 1.669 0 .63-.123 1.186-.369 1.664a2.711 2.711 0 0 1-1.05 1.115c-.452.265-.99.397-1.613.397zm.008-1.323c.284 0 .52-.08.71-.24.19-.164.333-.386.429-.667.099-.28.149-.6.149-.958s-.05-.678-.149-.959a1.489 1.489 0 0 0-.429-.666 1.05 1.05 0 0 0-.71-.244 1.09 1.09 0 0 0-.722.244 1.51 1.51 0 0 0-.437.666c-.096.281-.144.6-.144.959 0 .358.048.678.144.958.099.281.245.503.437.666.196.16.436.24.722.24zm8.086-1.42V47.84h1.708V54h-1.64v-1.119h-.064a1.822 1.822 0 0 1-.694.87c-.321.22-.713.33-1.175.33a2.07 2.07 0 0 1-1.087-.282 1.926 1.926 0 0 1-.734-.798c-.174-.345-.262-.758-.265-1.239V47.84h1.709v3.617c.002.364.1.651.293.862.192.212.45.317.774.317.206 0 .398-.046.577-.14a1.1 1.1 0 0 0 .433-.425c.113-.187.167-.419.165-.694zm3.075 4.933v-8.47h1.684v1.034h.077c.075-.165.183-.334.325-.505.144-.174.331-.318.561-.433.233-.118.521-.177.866-.177.45 0 .864.118 1.244.353.379.233.683.584.91 1.055.227.468.341 1.055.341 1.76 0 .688-.111 1.268-.333 1.741-.219.471-.519.828-.898 1.071-.377.24-.8.361-1.268.361-.331 0-.613-.055-.846-.164a1.746 1.746 0 0 1-.565-.413 2.084 2.084 0 0 1-.337-.51h-.052v3.297h-1.709zm1.672-5.39c0 .366.051.686.153.958.101.273.249.486.441.638.193.15.427.225.702.225.278 0 .513-.077.706-.229.192-.155.338-.369.437-.642.102-.275.152-.592.152-.95a2.72 2.72 0 0 0-.148-.939 1.402 1.402 0 0 0-.437-.633 1.109 1.109 0 0 0-.71-.229 1.13 1.13 0 0 0-.706.22c-.19.148-.336.356-.437.626a2.7 2.7 0 0 0-.153.955zm7.232 3.196c-.393 0-.744-.068-1.051-.204a1.688 1.688 0 0 1-.73-.614c-.176-.273-.265-.612-.265-1.019 0-.342.063-.63.189-.862.125-.233.297-.42.513-.561a2.5 2.5 0 0 1 .738-.321 5.73 5.73 0 0 1 .874-.153c.359-.037.648-.072.867-.104.219-.035.378-.085.477-.152a.335.335 0 0 0 .148-.297v-.024c0-.254-.08-.45-.24-.59-.158-.139-.383-.208-.674-.208-.307 0-.552.068-.734.204a.941.941 0 0 0-.361.506l-1.58-.129c.08-.374.238-.698.473-.97.235-.276.539-.487.911-.634.374-.15.807-.225 1.299-.225.342 0 .67.04.983.12.315.08.595.205.838.374a1.8 1.8 0 0 1 .581.65c.142.261.213.576.213.942V54h-1.62v-.854h-.048a1.74 1.74 0 0 1-.398.51 1.823 1.823 0 0 1-.597.34 2.47 2.47 0 0 1-.806.12zm.489-1.179c.251 0 .473-.05.666-.148.192-.102.343-.238.453-.41.11-.17.164-.364.164-.58v-.655a.914.914 0 0 1-.22.097 3.979 3.979 0 0 1-.309.076l-.345.06-.313.044c-.2.03-.375.076-.525.14a.84.84 0 0 0-.349.261.634.634 0 0 0-.124.401c0 .233.084.41.252.534.171.12.388.18.65.18zm6.014-7.15V54h-1.708v-8.214h1.708zm9.461 2.654a1.812 1.812 0 0 0-.236-.517 1.601 1.601 0 0 0-.871-.63 2.1 2.1 0 0 0-.613-.084c-.42 0-.789.104-1.107.313-.316.208-.562.512-.738.91-.177.396-.265.88-.265 1.452s.087 1.059.261 1.46c.174.401.42.707.738.918.318.209.694.313 1.127.313.393 0 .728-.07 1.006-.208.281-.142.495-.341.642-.598.15-.257.225-.56.225-.91l.353.052h-2.118v-1.308h3.437v1.035c0 .722-.152 1.342-.457 1.861a3.122 3.122 0 0 1-1.259 1.195c-.535.278-1.147.417-1.837.417-.77 0-1.447-.17-2.03-.51a3.531 3.531 0 0 1-1.363-1.455c-.324-.631-.486-1.38-.486-2.246 0-.666.097-1.26.289-1.78.195-.525.468-.969.818-1.332.351-.364.758-.64 1.224-.83a3.96 3.96 0 0 1 1.512-.285c.465 0 .898.068 1.299.204.401.134.757.324 1.067.57.313.246.568.539.766.878.198.337.325.709.381 1.115h-1.765zM159.568 54v-6.16h1.656v1.074h.064c.113-.382.301-.67.566-.866.264-.198.569-.297.914-.297a2.583 2.583 0 0 1 .538.06v1.517a3.005 3.005 0 0 0-.722-.092c-.252 0-.476.054-.674.164a1.212 1.212 0 0 0-.634 1.115V54h-1.708zm7.118.12c-.623 0-1.162-.132-1.617-.397a2.717 2.717 0 0 1-1.047-1.115c-.245-.478-.368-1.033-.368-1.664 0-.637.123-1.193.368-1.669a2.69 2.69 0 0 1 1.047-1.115c.455-.267.994-.4 1.617-.4s1.16.133 1.612.4c.454.265.805.637 1.051 1.115.246.476.369 1.032.369 1.669 0 .63-.123 1.186-.369 1.664a2.714 2.714 0 0 1-1.051 1.115c-.452.265-.989.397-1.612.397zm.008-1.323c.283 0 .52-.08.71-.24.189-.164.332-.386.429-.667.099-.28.148-.6.148-.958s-.049-.678-.148-.959a1.505 1.505 0 0 0-.429-.666 1.052 1.052 0 0 0-.71-.244c-.286 0-.527.081-.722.244a1.492 1.492 0 0 0-.437.666c-.097.281-.145.6-.145.959 0 .358.048.678.145.958.098.281.244.503.437.666.195.16.436.24.722.24zm8.085-1.42V47.84h1.709V54h-1.641v-1.119h-.064c-.139.361-.37.651-.694.87-.321.22-.712.33-1.175.33a2.07 2.07 0 0 1-1.087-.282 1.933 1.933 0 0 1-.734-.798c-.173-.345-.262-.758-.264-1.239V47.84h1.708v3.617c.003.364.1.651.293.862.193.212.451.317.774.317.206 0 .398-.046.578-.14.179-.096.323-.238.433-.425.112-.187.167-.419.164-.694zm3.075 4.933v-8.47h1.685v1.034h.076c.075-.165.183-.334.325-.505.144-.174.331-.318.561-.433.233-.118.522-.177.867-.177.449 0 .863.118 1.243.353.38.233.683.584.91 1.055.228.468.341 1.055.341 1.76 0 .688-.111 1.268-.332 1.741-.22.471-.519.828-.899 1.071a2.31 2.31 0 0 1-1.267.361c-.332 0-.614-.055-.847-.164a1.757 1.757 0 0 1-.565-.413 2.113 2.113 0 0 1-.337-.51h-.052v3.297h-1.709zm1.673-5.39c0 .366.051.686.152.958.102.273.249.486.441.638.193.15.427.225.702.225.278 0 .514-.077.706-.229a1.42 1.42 0 0 0 .437-.642c.102-.275.153-.592.153-.95 0-.356-.05-.669-.149-.939a1.394 1.394 0 0 0-.437-.633 1.107 1.107 0 0 0-.71-.229 1.13 1.13 0 0 0-.706.22 1.393 1.393 0 0 0-.437.626c-.101.27-.152.588-.152.955z"/></svg>